<?xml version="1.0" standalone="no"?>
<!DOCTYPE svg PUBLIC "-//W3C//DTD SVG 20010904//EN"
 "http://www.w3.org/TR/2001/REC-SVG-20010904/DTD/svg10.dtd">
<svg version="1.0" xmlns="http://www.w3.org/2000/svg"
 width="550.000000pt" height="550.000000pt" viewBox="0 0 550.000000 550.000000"
 preserveAspectRatio="xMidYMid meet">
<metadata>
Created by potrace 1.14, written by Peter Selinger 2001-2017
</metadata>
<g transform="translate(0.000000,550.000000) scale(0.100000,-0.100000)"
fill="#000000" stroke="none">
<path d="M2389 4066 c-2 -62 -1 -118 3 -121 4 -4 55 -8 86 -6 17 1 22 7 22 29
l0 28 105 -2 c136 -3 194 -22 255 -84 90 -89 116 -201 114 -495 -1 -175 -11
-249 -49 -347 -7 -17 5 -18 105 -3 8 1 20 23 27 51 31 122 41 222 37 389 -6
261 -66 427 -189 520 -70 54 -133 67 -332 69 l-183 3 -1 -31z"/>
<path d="M2161 3922 c-8 -3 -11 -153 -11 -492 l0 -488 113 1 112 2 3 48 3 47
-58 0 -58 0 0 393 0 392 315 -1 c173 0 318 1 322 3 9 5 -18 49 -47 78 -19 19
-33 20 -352 20 -182 0 -336 -1 -342 -3z"/>
<path d="M3044 3866 c17 -45 28 -58 62 -75 49 -25 66 -44 86 -96 22 -57 30
-111 33 -238 5 -203 -22 -311 -88 -361 -56 -43 -135 -54 -385 -56 -124 0 -228
-3 -232 -6 -3 -3 -5 -25 -5 -49 l0 -44 236 2 c157 2 235 -1 231 -8 -3 -5 1 -5
9 1 8 7 37 14 64 17 103 11 197 66 229 133 10 21 22 46 26 54 38 79 49 409 17
527 -41 155 -115 224 -263 247 l-41 6 21 -54z"/>
<path d="M2390 3805 c-1 -13 -1 -970 0 -1008 l0 -28 171 2 c182 2 231 10 303
53 44 26 106 83 106 97 0 5 -30 9 -67 9 -51 0 -78 -6 -121 -27 -47 -23 -71
-27 -169 -31 l-113 -4 0 471 0 471 -22 1 c-13 0 -38 1 -56 2 -17 1 -32 -2 -32
-8z"/>
<path d="M1437 2444 c3 -8 13 -14 23 -14 11 0 21 -4 24 -9 5 -7 8 -336 6 -613
0 -65 -1 -66 -31 -77 -17 -6 -28 -14 -25 -19 5 -8 304 -8 346 1 59 12 125 50
176 102 187 187 136 489 -103 607 l-65 32 -179 2 c-150 2 -177 0 -172 -12z
m345 -57 c136 -57 211 -247 164 -411 -24 -81 -51 -120 -128 -181 -24 -19 -95
-35 -157 -35 l-61 0 0 318 c0 175 2 321 5 324 11 10 143 -1 177 -15z"/>
<path d="M2137 2453 c-10 -10 3 -23 23 -23 10 0 21 -8 24 -17 3 -10 5 -163 4
-340 -1 -333 -4 -355 -41 -340 -7 3 -13 -2 -13 -12 0 -14 14 -16 108 -16 81 0
108 3 108 12 0 7 -9 13 -19 13 -11 0 -23 5 -26 11 -5 8 -10 558 -6 667 1 17 7
22 26 22 14 0 25 6 25 13 0 10 -25 14 -104 15 -57 1 -106 -1 -109 -5z"/>
<path d="M2417 2444 c3 -8 15 -14 28 -14 49 0 50 -10 50 -352 0 -299 -1 -320
-18 -333 -11 -7 -27 -12 -38 -10 -13 3 -19 -2 -19 -13 0 -15 13 -17 105 -17
90 0 105 2 105 16 0 10 -8 15 -22 14 -13 -1 -31 5 -40 13 -16 14 -18 41 -18
306 l0 291 78 -160 c43 -88 105 -215 137 -283 l59 -123 103 213 c57 117 117
240 133 273 l29 60 1 -45 c3 -159 0 -533 -4 -538 -3 -2 -16 -4 -29 -4 -18 0
-23 -5 -20 -17 3 -13 21 -16 109 -16 78 -1 104 2 104 12 0 7 -9 13 -19 13 -10
0 -22 7 -25 16 -8 20 -8 648 0 668 3 9 15 16 25 16 10 0 19 6 19 13 0 10 -20
14 -78 14 l-79 1 -116 -240 c-65 -132 -117 -245 -117 -251 0 -7 -37 65 -83
158 -46 94 -101 206 -123 250 l-39 80 -102 1 c-83 2 -101 -1 -96 -12z"/>
<path d="M3700 2452 c0 -7 -8 -32 -19 -55 -10 -23 -40 -91 -66 -152 -26 -60
-55 -128 -65 -150 -10 -22 -46 -106 -80 -187 -33 -81 -68 -152 -76 -159 -8 -6
-29 -12 -48 -13 -24 -1 -32 -5 -29 -16 3 -12 24 -15 112 -16 86 0 108 3 104
13 -3 7 -9 14 -14 14 -55 8 -57 20 -16 107 l19 42 156 -2 156 -3 25 -59 c23
-54 24 -59 8 -71 -9 -7 -17 -19 -17 -27 0 -21 198 -19 210 3 7 11 3 15 -13 16
-29 2 -53 36 -88 123 -39 95 -216 514 -240 565 -10 22 -18 34 -19 27z m39
-351 c34 -79 63 -148 64 -154 1 -7 -41 -11 -129 -12 l-131 0 54 130 c30 71 60
143 65 158 6 15 12 27 13 25 2 -2 30 -68 64 -147z"/>
</g>
</svg>
